<?xml version="1.0" encoding="UTF-8"?>
<svg width="46px" height="46px" viewBox="0 0 46 46" version="1.1" xmlns="http://www.w3.org/2000/svg" xmlns:xlink="http://www.w3.org/1999/xlink">
    <title>support</title>
    <g id="页面-1" stroke="none" stroke-width="1" fill="none" fill-rule="evenodd">
        <g id="home-support-2" transform="translate(-1374.000000, -701.000000)">
            <g id="编组-51" transform="translate(1092.000000, 687.000000)">
                <g id="编组-19" transform="translate(275.000000, 7.000000)">
                    <g id="support" transform="translate(7.000000, 7.000000)">
                        <g id="编组-18" fill="#099DFD">
                            <rect id="矩形备份-14" x="0" y="0" width="46" height="46" rx="23"></rect>
                        </g>
                        <g id="客服" transform="translate(8.000000, 10.000000)" fill="#FFFFFF" fill-rule="nonzero">
                            <path d="M26.4910937,8.83841838 C26.4986329,8.86101018 26.4986329,8.88360202 26.5061463,8.90616811 L26.5061464,8.90616817 C24.6288898,2.3745854 17.8121818,-1.39847978 11.280599,0.478776783 C7.20774198,1.64936746 4.02378804,4.83331111 2.85320766,8.90616817 C2.86074684,8.88360211 2.86074684,8.86101027 2.86826029,8.83841845 L2.86826016,8.83841848 C0.858066953,9.32215099 -0.379378007,11.3438743 0.104364793,13.3540803 C0.433392236,14.7213896 1.50095856,15.788956 2.86826016,16.1179757 L2.86826016,16.1179757 C2.86925633,16.1097086 2.8664998,16.1014295 2.86074671,16.0954096 L2.86074669,16.0954096 C2.99216263,16.450186 3.38629979,16.6312577 3.74107882,16.4998417 C4.07511609,16.376108 4.25858069,16.017015 4.16309553,15.6738329 L4.16309532,15.6738322 C3.85956987,14.6370118 3.70494972,13.5623154 3.70387416,12.4819788 L3.7038738,12.4820175 C3.76088829,6.42007698 8.72126441,1.55213201 14.783205,1.60915191 C20.8451455,1.6661664 25.7130905,6.62654252 25.6560706,12.6884831 C25.6105947,17.523621 22.4065026,21.759484 17.7661998,23.1190328 L17.7661998,23.1190328 C17.3866907,22.5398615 16.7422398,22.1893615 16.0498135,22.1855379 L13.3095906,22.1855379 L13.3095905,22.1855379 C12.1600118,22.1855379 11.2280941,23.1174555 11.2280967,24.2670343 C11.2280968,25.416613 12.1600144,26.3485281 13.3095931,26.3485281 L16.0498159,26.3485281 L16.0498159,26.3485281 C17.1137593,26.3420261 17.9977838,25.5265075 18.0898982,24.466537 L18.0898977,24.4665372 C22.138336,23.2697909 25.3058221,20.105107 26.506199,16.0577493 C26.4986855,16.0803411 26.4986855,16.1029329 26.4911464,16.1179598 L26.4911466,16.1179598 C28.5013398,15.6342273 29.7387848,13.612504 29.255042,11.6022979 C28.9260146,10.2349886 27.8584482,9.1674223 26.4911466,8.83840257 L26.4910937,8.83841838 Z M2.56139137,10.4193053 C2.52118995,10.5472913 2.49440419,10.6752513 2.45424851,10.810751 C2.49440414,10.6752515 2.5211899,10.5472656 2.56139137,10.4193053 Z M2.46924968,14.3338652 C2.48875441,14.4618255 2.54713545,14.5822978 2.57639254,14.7027449 C2.54716877,14.5747589 2.49850677,14.4618258 2.46924968,14.3338652 Z M26.844895,14.5446536 C26.8850506,14.4166676 26.9118364,14.2886819 26.9520378,14.1531822 C26.9118364,14.2886816 26.8850507,14.4166676 26.844895,14.5446536 Z M26.844895,10.4193053 C26.8850506,10.5472913 26.9118364,10.6752513 26.9520378,10.810751 C26.9118364,10.6752515 26.8850507,10.5472656 26.844895,10.4193053 Z M26.844895,10.4193053 L14.7775449,20.1229028 L14.7775446,20.1229028 C17.715433,20.1127905 20.3224979,18.237631 21.2666455,15.4555567 L21.2666455,15.4555567 C21.4027969,15.09989 21.2248447,14.7011933 20.8691787,14.5650403 C20.513512,14.4288888 20.1148153,14.6068411 19.9786623,14.962507 C19.9734466,14.976132 19.9686646,14.989919 19.9643235,15.0038472 L19.9643234,15.0038474 C19.0075342,17.8670387 15.9108161,19.412494 13.0476248,18.4557125 C11.4132766,17.9095669 10.1321481,16.6247203 9.59074211,14.9887948 L9.5907421,14.9887948 C9.47550711,14.6328115 9.09350854,14.4376445 8.73752273,14.5528782 C8.73081628,14.5550491 8.72414413,14.5573246 8.71750872,14.5597038 L8.71750878,14.5597037 C8.35776882,14.6866481 8.16663895,15.078945 8.2883929,15.4404759 L8.28839328,15.440477 C9.22637829,18.2292543 11.835283,20.1117599 14.7775456,20.1229028 L26.844895,10.4193053 Z" id="形状"></path>
                        </g>
                    </g>
                </g>
            </g>
        </g>
    </g>
</svg>