<svg width="42" height="42" viewBox="0 0 42 42" fill="none" xmlns="http://www.w3.org/2000/svg">
<path d="M21.7114 16.3333C20.9437 14.1892 19.5185 12.3323 17.6325 11.0188C15.7465 9.70529 13.4926 8.99992 11.1818 9C5.01318 9 0 13.9317 0 20C0 26.0683 5.01318 31 11.1818 31C13.4926 31.0001 15.7465 30.2947 17.6325 28.9812C19.5185 27.6677 20.9437 25.8108 21.7114 23.6667H29.8182V31H37.2727V23.6667H41V16.3333H21.7114ZM11.1818 23.6667C9.13182 23.6667 7.45455 22.0167 7.45455 20C7.45455 17.9833 9.13182 16.3333 11.1818 16.3333C13.2318 16.3333 14.9091 17.9833 14.9091 20C14.9091 22.0167 13.2318 23.6667 11.1818 23.6667Z" fill="#5EC5C0"/>
</svg>
